<?xml version="1.0" encoding="utf-8"?>
<!-- Generator: Adobe Illustrator 15.0.0, SVG Export Plug-In . SVG Version: 6.00 Build 0)  -->
<!DOCTYPE svg PUBLIC "-//W3C//DTD SVG 1.1//EN" "http://www.w3.org/Graphics/SVG/1.1/DTD/svg11.dtd">
<svg version="1.1" id="Layer_1" xmlns="http://www.w3.org/2000/svg" xmlns:xlink="http://www.w3.org/1999/xlink" x="0px" y="0px"
	 width="128px" height="128px" viewBox="0 0 128 128" style="enable-background:new 0 0 128 128;" xml:space="preserve">
<style type="text/css">
<![CDATA[
	.st0{fill:#FFFFFF;}
]]>
</style>
<g>
	<path class="st0" d="M107.60547,22.98779c-13.13379-6.53809-27.94043-10.23535-43.60645-10.23535
		c-15.66406,0-30.4707,3.69727-43.60449,10.23535l-1.78906,0.88965l45.39355,91.37012l45.39551-91.37012L107.60547,22.98779z
		 M104.02148,25.70264l-4.28906,8.63281c-10.85742-5.06543-22.96582-7.91113-35.7334-7.91016
		c-12.7666-0.00098-24.875,2.84473-35.73145,7.91016l-4.28906-8.63281c12.14648-5.72656,25.69824-8.9502,40.02051-8.9502
		C78.32324,16.75244,91.875,19.97607,104.02148,25.70264z M30.04688,37.91748c10.32227-4.7998,21.81543-7.49219,33.95215-7.49219
		c12.1377,0,23.63086,2.69238,33.9541,7.49219l-33.9541,68.33984L30.04688,37.91748z"/>
	<path class="st0" d="M75.43262,41.75244c-4.97363,0-9.00195,4.02539-9.00195,9.00293c0,4.97168,4.02832,8.99707,9.00195,8.99707
		c4.97168,0,8.99805-4.02539,8.99805-8.99707C84.43066,45.77783,80.4043,41.75244,75.43262,41.75244z M75.43262,55.75244
		c-2.75781,0-5.00195-2.24219-5.00195-4.99707c0-2.75879,2.24414-5.00293,5.00195-5.00293
		c2.75586,0,4.99805,2.24414,4.99805,5.00293C80.43066,53.51025,78.18848,55.75244,75.43262,55.75244z"/>
	<path class="st0" d="M63.43262,68.75244c-3.31543,0-6.00195,2.68359-6.00195,6c0,3.31348,2.68652,5.99707,6.00195,5.99707
		c3.31348,0,5.99805-2.68359,5.99805-5.99707C69.43066,71.43604,66.74609,68.75244,63.43262,68.75244z M63.43262,76.74951
		c-1.10449,0-2.00195-0.89551-2.00195-1.99707c0-1.10254,0.89746-2,2.00195-2c1.10156,0,1.99805,0.89746,1.99805,2
		C65.43066,75.854,64.53418,76.74951,63.43262,76.74951z"/>
	<path class="st0" d="M49.93262,38.75244c-4.14453,0-7.50195,3.35449-7.50195,7.5c0,4.14258,3.35742,7.49707,7.50195,7.49707
		c4.14258,0,7.49805-3.35449,7.49805-7.49707C57.43066,42.10693,54.0752,38.75244,49.93262,38.75244z M49.93262,49.74951
		c-1.93164,0-3.50195-1.56836-3.50195-3.49707c0-1.92969,1.57031-3.5,3.50195-3.5c1.92871,0,3.49805,1.57031,3.49805,3.5
		C53.43066,48.18115,51.86133,49.74951,49.93262,49.74951z"/>
</g>
</svg>
