<?xml version="1.0" encoding="utf-8"?>
<!-- Generator: Adobe Illustrator 15.0.0, SVG Export Plug-In . SVG Version: 6.00 Build 0)  -->
<!DOCTYPE svg PUBLIC "-//W3C//DTD SVG 1.1//EN" "http://www.w3.org/Graphics/SVG/1.1/DTD/svg11.dtd">
<svg version="1.1" id="Layer_1" xmlns="http://www.w3.org/2000/svg" xmlns:xlink="http://www.w3.org/1999/xlink" x="0px" y="0px"
	 width="128px" height="128px" viewBox="0 0 128 128" style="enable-background:new 0 0 128 128;" xml:space="preserve">
<style type="text/css">
<![CDATA[
	.st0{fill:#FFFFFF;}
]]>
</style>
<g>
	<ellipse class="st0" cx="48" cy="34" rx="7.5" ry="3"/>
	<path class="st0" d="M112.1709,60.6709c-0.92773-1.79883-2.47217-3.28027-4.41406-4.56348
		c-2.92285-1.91797-6.81055-3.41211-11.37549-4.4668C91.81738,50.5918,86.5791,50.00098,81,50c-0.3374,0-0.66504,0.01563-1,0.02051
		V34.05664V34c0.00195-1.16797-0.30273-2.30469-0.8291-3.3291c-0.92773-1.79883-2.47217-3.28027-4.41406-4.56348
		c-2.92285-1.91797-6.81055-3.41211-11.37549-4.4668C58.81738,20.5918,53.5791,20.00098,48,20
		c-8.50391,0.00488-16.20605,1.36328-21.95605,3.6582c-2.87646,1.1543-5.27588,2.53613-7.06055,4.21777
		c-0.89014,0.84277-1.62793,1.76758-2.1543,2.79492C16.30273,31.69531,15.99854,32.83203,16,34v33
		c-0.00146,1.16797,0.30273,2.30469,0.8291,3.3291c0.92773,1.79883,2.47217,3.28027,4.41406,4.56348
		c2.92285,1.91797,6.81055,3.41211,11.37549,4.4668C37.18262,80.4082,42.4209,80.99902,48,81c0.3374,0,0.66504-0.01465,1-0.01953V97
		c-0.00195,1.16797,0.30273,2.30469,0.8291,3.3291c0.92725,1.79883,2.47217,3.28027,4.41406,4.56348
		c2.92285,1.91797,6.81055,3.41211,11.37549,4.4668C70.18262,110.4082,75.4209,110.99902,81,111
		c8.50391-0.00488,16.20605-1.36328,21.95605-3.6582c2.87646-1.1543,5.27588-2.53613,7.06055-4.21777
		c0.89014-0.84277,1.62793-1.76758,2.1543-2.79492C112.69727,99.30469,113.00146,98.16797,113,97V64
		C113.00146,62.83105,112.69727,61.69531,112.1709,60.6709z M101.4707,57.37207c2.55225,1.0166,4.54639,2.2207,5.79736,3.41016
		c0.62793,0.59375,1.06885,1.17578,1.3418,1.70996C108.8833,63.03027,108.99805,63.51172,109,64
		c-0.00195,0.48828-0.1167,0.96875-0.39014,1.50781c-0.47119,0.93457-1.4873,2.01855-3.05273,3.04395
		c-2.33936,1.5459-5.84277,2.94043-10.07275,3.90918C91.25342,73.43457,86.29443,74.00098,81,74
		c-8.06494,0.00488-15.36279-1.32324-20.4707-3.37207c-2.55273-1.0166-4.54639-2.2207-5.79736-3.41016
		c-0.62842-0.59375-1.06885-1.17578-1.3418-1.70996C53.1167,64.96875,53.00146,64.48828,53,64
		c0.00146-0.48828,0.1167-0.96973,0.39014-1.50781c0.4707-0.93555,1.4873-2.01855,3.05273-3.04395
		c2.33887-1.5459,5.84277-2.94043,10.07275-3.90918C70.74658,54.56543,75.70557,53.99902,81,54
		C89.06494,53.99512,96.36279,55.32324,101.4707,57.37207z M20.39014,32.49219c0.4707-0.93457,1.4873-2.01855,3.05273-3.04395
		c2.33887-1.5459,5.84277-2.94043,10.07275-3.90918C37.74658,24.56543,42.70557,23.99902,48,24c0.01465,0,0.02979,0,0.04443,0
		c8.04736,0,15.32764,1.32617,20.42627,3.37207c2.55273,1.0166,4.54639,2.2207,5.79785,3.41016
		c0.62793,0.59375,1.06836,1.17578,1.34131,1.70996C75.88281,33.03027,75.99854,33.51172,76,34
		c-0.00146,0.48828-0.11719,0.96875-0.39014,1.50781c-0.47119,0.93555-1.4873,2.01855-3.05273,3.04395
		c-2.33887,1.5459-5.84326,2.94043-10.07275,3.90918C58.25342,43.43457,53.29443,44.00098,48,44c-0.01416,0-0.02881,0-0.04297,0
		c-8.04785,0-15.3291-1.32617-20.42773-3.37207c-2.55225-1.0166-4.54639-2.2207-5.79736-3.41016
		c-0.62793-0.59375-1.06885-1.17578-1.3418-1.70996C20.1167,34.96875,20.00146,34.48828,20,34
		C20.00146,33.51172,20.1167,33.03027,20.39014,32.49219z M48,77c-0.01465,0-0.02979,0-0.04443,0
		c-8.04736,0-15.32813-1.32617-20.42627-3.37207c-2.55225-1.0166-4.54639-2.2207-5.79736-3.41016
		c-0.62793-0.59375-1.06885-1.17578-1.3418-1.70996C20.1167,67.96875,20.00146,67.48828,20,67V40.99805
		c0.39258,0.30957,0.80811,0.60742,1.24316,0.89453c2.92285,1.91797,6.81055,3.41211,11.37549,4.4668
		C37.18262,47.4082,42.4209,47.99902,48,48c8.50391-0.00488,16.20605-1.36328,21.95605-3.6582
		c2.36133-0.94727,4.40137-2.04883,6.04395-3.34375v9.17969c-6.50391,0.42383-12.35938,1.64551-16.95605,3.48047
		c-2.87646,1.1543-5.27588,2.53613-7.06055,4.21777c-0.89014,0.84277-1.62793,1.76758-2.1543,2.79492
		C49.30273,61.69531,48.99805,62.83105,49,64v12.97949C48.66504,76.98438,48.33789,77,48,77z M108.60986,98.50781
		c-0.47119,0.93457-1.4873,2.01855-3.05273,3.04395c-2.33936,1.5459-5.84277,2.94043-10.07275,3.90918
		C91.25342,106.43457,86.29443,107.00098,81,107c-8.06494,0.00488-15.36279-1.32324-20.4707-3.37207
		c-2.55273-1.0166-4.54639-2.2207-5.79736-3.41016c-0.62842-0.59375-1.06885-1.17578-1.3418-1.70996
		C53.1167,97.96875,53.00146,97.48828,53,97V70.99414c0.39355,0.30957,0.80664,0.61035,1.24316,0.89844
		c2.92285,1.91797,6.81055,3.41211,11.37549,4.4668C70.18262,77.4082,75.4209,77.99902,81,78
		c8.50391-0.00488,16.20605-1.36328,21.95605-3.6582c2.36475-0.94922,4.40039-2.05469,6.04395-3.35156V97
		C108.99805,97.48828,108.8833,97.96875,108.60986,98.50781z"/>
	<ellipse class="st0" cx="81" cy="64" rx="7.5" ry="3"/>
</g>
</svg>
